<svg xmlns="http://www.w3.org/2000/svg" width="204.415" height="5.473" viewBox="0 0 204.415 5.473" preserveAspectRatio="xMinYMax slice"><path d="M204.411.286l-.605 1.121c-.129.231-.281.45-.452.646-.818.955-2.05 1.509-3.393 1.509-1.337 0-2.565-.555-3.389-1.509a3.877 3.877 0 0 1-.444-.646l-.611-1.121-.604 1.122a4.196 4.196 0 0 1-.451.645c-.819.955-2.058 1.509-3.394 1.509-1.331 0-2.57-.555-3.39-1.509a3.16 3.16 0 0 1-.438-.646l-.616-1.121-.611 1.122c-.128.233-.28.455-.438.645-.825.955-2.062 1.509-3.394 1.509-1.337 0-2.576-.551-3.401-1.512a4.298 4.298 0 0 1-.439-.644L177.73.285l-.604 1.122c-.127.233-.28.449-.451.645-.817.955-2.057 1.509-3.394 1.509-1.336 0-2.575-.555-3.387-1.509a3.483 3.483 0 0 1-.446-.646l-.61-1.121-.61 1.121c-.127.231-.275.45-.446.646-.818.955-2.057 1.509-3.395 1.509-1.331 0-2.568-.555-3.387-1.509-.17-.2-.323-.42-.446-.646l-.61-1.115-.611 1.115a3.791 3.791 0 0 1-.445.646c-.818.955-2.05 1.509-3.388 1.509-1.336 0-2.576-.555-3.395-1.509a3.469 3.469 0 0 1-.444-.646l-.61-1.124-.612 1.125c-.127.233-.28.455-.444.645-.819.955-2.058 1.509-3.394 1.509-1.338 0-2.577-.555-3.388-1.505a3.539 3.539 0 0 1-.445-.649l-.612-1.121-.609 1.122a4.239 4.239 0 0 1-.446.645c-.776.9-1.904 1.426-3.24 1.472-1.247-.091-2.846-.586-3.603-1.472a3.768 3.768 0 0 1-.452-.646l-.61-1.121-.604 1.121c-.122.231-.275.45-.445.646-.819.955-2.058 1.509-3.394 1.509-1.338 0-2.577-.555-3.394-1.509a3.934 3.934 0 0 1-.446-.648l-.61-1.117-.604 1.121c-.122.229-.275.45-.446.646-.819.955-2.058 1.509-3.394 1.509-1.338 0-2.577-.555-3.395-1.509a3.45 3.45 0 0 1-.445-.646l-.61-1.124-.604 1.125c-.129.233-.28.455-.446.645-.817.955-2.056 1.509-3.393 1.509-1.336 0-2.57-.555-3.394-1.512a3.64 3.64 0 0 1-.445-.644l-.612-1.121-.609 1.117a3.594 3.594 0 0 1-.446.648c-.812.955-2.052 1.509-3.389 1.509-1.335 0-2.569-.555-3.394-1.509a3.173 3.173 0 0 1-.438-.646L97.628.285l-.61 1.121c-.128.23-.281.45-.452.646-.818.955-2.058 1.509-3.395 1.509-1.33 0-2.569-.555-3.387-1.509-.171-.2-.324-.42-.446-.646l-.61-1.121-.604 1.122a4.127 4.127 0 0 1-.451.645c-.817.955-2.057 1.509-3.395 1.509-1.33 0-2.569-.555-3.381-1.505a3.84 3.84 0 0 1-.451-.649L79.835.286l-.605 1.12a4.64 4.64 0 0 1-.445.645c-.825.955-2.063 1.509-3.395 1.509-1.337 0-2.576-.551-3.4-1.512a3.555 3.555 0 0 1-.439-.644L70.94.283l-.61 1.122a3.693 3.693 0 0 1-.445.645c-.812.955-2.052 1.509-3.394 1.509-1.337 0-2.57-.555-3.388-1.509a4.034 4.034 0 0 1-.446-.646l-.61-1.121-.61 1.121c-.122.23-.275.45-.445.646-.819.955-2.051 1.509-3.389 1.509-1.336 0-2.568-.555-3.393-1.509-.17-.2-.324-.42-.446-.646L53.153.289l-.61 1.116c-.129.228-.28.443-.445.645-.818.955-2.057 1.509-3.388 1.509-1.344 0-2.583-.555-3.395-1.509a3.68 3.68 0 0 1-.446-.646L44.259.28l-.609 1.129c-.126.233-.28.455-.451.646-.812.954-2.045 1.508-3.389 1.508-1.336 0-2.575-.555-3.387-1.505a3.62 3.62 0 0 1-.451-.649L35.361.288l-.604 1.121c-.123.229-.274.45-.445.646-.819.954-2.058 1.508-3.395 1.508-1.336 0-2.569-.555-3.394-1.508a4.08 4.08 0 0 1-.446-.646l-.61-1.121-.604 1.117a3.077 3.077 0 0 1-.452.648c-.812.955-2.051 1.509-3.388 1.509s-2.576-.555-3.394-1.509a3.926 3.926 0 0 1-.445-.648L17.572.288l-.604 1.122a3.67 3.67 0 0 1-.453.646c-.811.954-2.051 1.508-3.387 1.508-1.331 0-2.57-.555-3.394-1.508a4.178 4.178 0 0 1-.436-.648L8.688.287l-.611 1.122c-.134.233-.28.455-.451.646-.819.953-2.051 1.507-3.388 1.507-1.336 0-2.866-.971-3.394-1.655C.317 1.223 0 0 0 0v3.906l.391.375c1.166.918 2.312 1.191 3.898 1.191 1.576 0 3.071-.508 4.243-1.425l.168-.141.171.141c1.173.917 2.689 1.425 4.265 1.425 1.581 0 3.098-.508 4.27-1.425l.177-.141.174.141c1.172.917 2.681 1.425 4.268 1.425 1.581 0 3.101-.508 4.267-1.425l.177-.141.183.141c1.172.917 2.686 1.425 4.266 1.425 1.588 0 3.102-.508 4.268-1.425l.176-.141.184.141c1.171.917 2.684 1.425 4.265 1.425 1.577 0 3.095-.508 4.268-1.425l.183-.141.178.141c1.166.917 2.685 1.425 4.272 1.425 1.575 0 3.094-.508 4.266-1.425l.176-.141.177.141c1.172.917 2.692 1.425 4.272 1.425 1.581 0 3.095-.508 4.268-1.425l.177-.141.177.141c1.173.917 2.687 1.425 4.268 1.425 1.586 0 3.1-.508 4.272-1.425l.177-.141.184.141c1.166.917 2.678 1.425 4.266 1.425 1.574 0 3.095-.508 4.267-1.425l.177-.141.177.141c1.178.917 2.691 1.425 4.266 1.425 1.582 0 3.102-.508 4.274-1.425l.176-.141.183.141c1.166.917 2.681 1.425 4.26 1.425 1.582 0 3.102-.508 4.273-1.425l.184-.141.177.141c1.166.917 2.685 1.425 4.266 1.425s3.102-.508 4.267-1.425l.177-.141.184.141c1.171.917 2.686 1.425 4.267 1.425s3.095-.508 4.267-1.425l.183-.141.178.141c1.172.917 2.679 1.425 4.267 1.425 1.581 0 3.095-.508 4.266-1.425l.184-.141.177.141c1.171.917 2.686 1.425 4.267 1.425s3.101-.508 4.267-1.425l.176-.141.184.141c.934.732 2.643 1.275 4.346 1.386l.091.019c.037-.003.166-.049.166-.049l.268-.021c1.465-.111 2.759-.573 3.723-1.333l.182-.141.178.141c1.172.917 2.686 1.425 4.267 1.425s3.094-.508 4.267-1.425l.184-.141.177.141c1.172.917 2.691 1.425 4.272 1.425 1.575 0 3.088-.508 4.267-1.425l.177-.141.183.141c1.166.917 2.686 1.425 4.26 1.425 1.582 0 3.102-.508 4.273-1.425l.177-.141.183.141c1.167.917 2.68 1.425 4.26 1.425 1.587 0 3.101-.508 4.272-1.425l.177-.141.178.141c1.171.917 2.685 1.425 4.273 1.425 1.575 0 3.094-.508 4.267-1.425l.177-.141.184.141c1.171.917 2.679 1.425 4.26 1.425s3.1-.508 4.272-1.425l.177-.141.177.141c1.178.917 2.691 1.425 4.267 1.425 1.579 0 3.1-.508 4.273-1.425l.177-.141-.004-3.622z"/></svg>